<mxfile host="app.diagrams.net" modified="2022-09-02T07:21:29.474Z" agent="5.0 (Macintosh; Intel Mac OS X 10_15_7) AppleWebKit/537.36 (KHTML, like Gecko) Chrome/104.0.0.0 Safari/537.36" etag="uYgibQ9kYR-LxIRYEzMC" version="20.2.8" type="github">
  <diagram id="dro-6b8uDXhCYp0ZRgtl" name="หน้า-1">
    <mxGraphModel dx="270" dy="495" grid="1" gridSize="10" guides="1" tooltips="1" connect="1" arrows="1" fold="1" page="1" pageScale="1" pageWidth="827" pageHeight="1169" math="0" shadow="0">
      <root>
        <mxCell id="0" />
        <mxCell id="1" parent="0" />
        <mxCell id="DdUuCqRwAkqUP61v0UxE-35" value="" style="edgeStyle=orthogonalEdgeStyle;rounded=0;orthogonalLoop=1;jettySize=auto;html=1;endArrow=classic;endFill=1;" edge="1" parent="1" source="j-maeg7QOYu4QM1gPDef-197" target="DdUuCqRwAkqUP61v0UxE-17">
          <mxGeometry relative="1" as="geometry" />
        </mxCell>
        <mxCell id="j-maeg7QOYu4QM1gPDef-197" value="เริ่มต้น" style="ellipse;whiteSpace=wrap;html=1;" parent="1" vertex="1">
          <mxGeometry x="890" y="30" width="60" height="40" as="geometry" />
        </mxCell>
        <mxCell id="DdUuCqRwAkqUP61v0UxE-16" value="" style="group" vertex="1" connectable="0" parent="1">
          <mxGeometry x="841" y="120" width="800" height="1310" as="geometry" />
        </mxCell>
        <mxCell id="j-maeg7QOYu4QM1gPDef-199" value="ตรวจสอบประเภท&lt;br&gt;Parameter In : actionType&amp;nbsp;" style="whiteSpace=wrap;html=1;rounded=1;" parent="DdUuCqRwAkqUP61v0UxE-16" vertex="1">
          <mxGeometry x="60" y="10" width="120" height="60" as="geometry" />
        </mxCell>
        <mxCell id="j-maeg7QOYu4QM1gPDef-202" value="เป็น R" style="rhombus;whiteSpace=wrap;html=1;rounded=1;" parent="DdUuCqRwAkqUP61v0UxE-16" vertex="1">
          <mxGeometry x="80" y="100" width="80" height="80" as="geometry" />
        </mxCell>
        <mxCell id="j-maeg7QOYu4QM1gPDef-198" value="" style="edgeStyle=orthogonalEdgeStyle;rounded=0;orthogonalLoop=1;jettySize=auto;html=1;" parent="DdUuCqRwAkqUP61v0UxE-16" source="j-maeg7QOYu4QM1gPDef-199" target="j-maeg7QOYu4QM1gPDef-202" edge="1">
          <mxGeometry relative="1" as="geometry" />
        </mxCell>
        <mxCell id="j-maeg7QOYu4QM1gPDef-203" value="ใช่" style="text;html=1;align=center;verticalAlign=middle;resizable=0;points=[];autosize=1;strokeColor=none;fillColor=none;" parent="DdUuCqRwAkqUP61v0UxE-16" vertex="1">
          <mxGeometry x="155" y="100" width="40" height="30" as="geometry" />
        </mxCell>
        <mxCell id="j-maeg7QOYu4QM1gPDef-204" value="ไม่ใช่" style="text;html=1;align=center;verticalAlign=middle;resizable=0;points=[];autosize=1;strokeColor=none;fillColor=none;" parent="DdUuCqRwAkqUP61v0UxE-16" vertex="1">
          <mxGeometry x="60" y="175" width="50" height="30" as="geometry" />
        </mxCell>
        <mxCell id="j-maeg7QOYu4QM1gPDef-205" style="edgeStyle=orthogonalEdgeStyle;rounded=0;orthogonalLoop=1;jettySize=auto;html=1;" parent="DdUuCqRwAkqUP61v0UxE-16" source="j-maeg7QOYu4QM1gPDef-207" edge="1">
          <mxGeometry relative="1" as="geometry">
            <mxPoint x="120" y="320" as="targetPoint" />
          </mxGeometry>
        </mxCell>
        <mxCell id="j-maeg7QOYu4QM1gPDef-207" value="เป็น F" style="rhombus;whiteSpace=wrap;html=1;rounded=1;" parent="DdUuCqRwAkqUP61v0UxE-16" vertex="1">
          <mxGeometry x="80" y="205" width="80" height="80" as="geometry" />
        </mxCell>
        <mxCell id="j-maeg7QOYu4QM1gPDef-200" value="" style="edgeStyle=orthogonalEdgeStyle;rounded=0;orthogonalLoop=1;jettySize=auto;html=1;" parent="DdUuCqRwAkqUP61v0UxE-16" source="j-maeg7QOYu4QM1gPDef-202" target="j-maeg7QOYu4QM1gPDef-207" edge="1">
          <mxGeometry relative="1" as="geometry" />
        </mxCell>
        <mxCell id="j-maeg7QOYu4QM1gPDef-208" value="ใช่" style="text;html=1;align=center;verticalAlign=middle;resizable=0;points=[];autosize=1;strokeColor=none;fillColor=none;" parent="DdUuCqRwAkqUP61v0UxE-16" vertex="1">
          <mxGeometry x="80" y="280" width="40" height="30" as="geometry" />
        </mxCell>
        <mxCell id="j-maeg7QOYu4QM1gPDef-209" value="ไม่ใช่" style="text;html=1;align=center;verticalAlign=middle;resizable=0;points=[];autosize=1;strokeColor=none;fillColor=none;" parent="DdUuCqRwAkqUP61v0UxE-16" vertex="1">
          <mxGeometry x="145" y="205" width="50" height="30" as="geometry" />
        </mxCell>
        <mxCell id="j-maeg7QOYu4QM1gPDef-211" value="ดึงข้อมูลที่ใช้&lt;br&gt;สำหรับส่งข้อมูล OTP ด้วยอีเมล์จาก hard code" style="whiteSpace=wrap;html=1;rounded=1;" parent="DdUuCqRwAkqUP61v0UxE-16" vertex="1">
          <mxGeometry x="209" width="150" height="60" as="geometry" />
        </mxCell>
        <mxCell id="j-maeg7QOYu4QM1gPDef-201" value="" style="edgeStyle=orthogonalEdgeStyle;rounded=0;orthogonalLoop=1;jettySize=auto;html=1;entryX=0;entryY=0.5;entryDx=0;entryDy=0;" parent="DdUuCqRwAkqUP61v0UxE-16" source="j-maeg7QOYu4QM1gPDef-202" target="j-maeg7QOYu4QM1gPDef-211" edge="1">
          <mxGeometry relative="1" as="geometry">
            <Array as="points">
              <mxPoint x="189" y="140" />
              <mxPoint x="189" y="30" />
            </Array>
          </mxGeometry>
        </mxCell>
        <mxCell id="j-maeg7QOYu4QM1gPDef-214" value="สำเร็จ" style="rhombus;whiteSpace=wrap;html=1;rounded=1;" parent="DdUuCqRwAkqUP61v0UxE-16" vertex="1">
          <mxGeometry x="390" y="100" width="80" height="80" as="geometry" />
        </mxCell>
        <mxCell id="j-maeg7QOYu4QM1gPDef-216" value="เพิ่มข้อมูลลงใน activityLog" style="whiteSpace=wrap;html=1;rounded=1;" parent="DdUuCqRwAkqUP61v0UxE-16" vertex="1">
          <mxGeometry x="370" y="20" width="120" height="60" as="geometry" />
        </mxCell>
        <mxCell id="j-maeg7QOYu4QM1gPDef-212" value="" style="edgeStyle=orthogonalEdgeStyle;rounded=0;orthogonalLoop=1;jettySize=auto;html=1;" parent="DdUuCqRwAkqUP61v0UxE-16" source="j-maeg7QOYu4QM1gPDef-214" target="j-maeg7QOYu4QM1gPDef-216" edge="1">
          <mxGeometry relative="1" as="geometry" />
        </mxCell>
        <mxCell id="j-maeg7QOYu4QM1gPDef-217" value="ไม่ใช่" style="text;html=1;align=center;verticalAlign=middle;resizable=0;points=[];autosize=1;strokeColor=none;fillColor=none;" parent="DdUuCqRwAkqUP61v0UxE-16" vertex="1">
          <mxGeometry x="455" y="100" width="50" height="30" as="geometry" />
        </mxCell>
        <mxCell id="j-maeg7QOYu4QM1gPDef-218" value="ใช่" style="text;html=1;align=center;verticalAlign=middle;resizable=0;points=[];autosize=1;strokeColor=none;fillColor=none;" parent="DdUuCqRwAkqUP61v0UxE-16" vertex="1">
          <mxGeometry x="381" y="175" width="40" height="30" as="geometry" />
        </mxCell>
        <mxCell id="j-maeg7QOYu4QM1gPDef-220" value="บันทึกข้อมูลลง database" style="whiteSpace=wrap;html=1;rounded=1;" parent="DdUuCqRwAkqUP61v0UxE-16" vertex="1">
          <mxGeometry x="530" y="20" width="120" height="60" as="geometry" />
        </mxCell>
        <mxCell id="j-maeg7QOYu4QM1gPDef-215" value="" style="edgeStyle=orthogonalEdgeStyle;rounded=0;orthogonalLoop=1;jettySize=auto;html=1;" parent="DdUuCqRwAkqUP61v0UxE-16" source="j-maeg7QOYu4QM1gPDef-216" target="j-maeg7QOYu4QM1gPDef-220" edge="1">
          <mxGeometry relative="1" as="geometry" />
        </mxCell>
        <mxCell id="j-maeg7QOYu4QM1gPDef-222" value="สำเร็จ" style="rhombus;whiteSpace=wrap;html=1;rounded=1;" parent="DdUuCqRwAkqUP61v0UxE-16" vertex="1">
          <mxGeometry x="680" y="10" width="80" height="80" as="geometry" />
        </mxCell>
        <mxCell id="j-maeg7QOYu4QM1gPDef-219" value="" style="edgeStyle=orthogonalEdgeStyle;rounded=0;orthogonalLoop=1;jettySize=auto;html=1;" parent="DdUuCqRwAkqUP61v0UxE-16" source="j-maeg7QOYu4QM1gPDef-220" target="j-maeg7QOYu4QM1gPDef-222" edge="1">
          <mxGeometry relative="1" as="geometry" />
        </mxCell>
        <mxCell id="j-maeg7QOYu4QM1gPDef-223" style="edgeStyle=orthogonalEdgeStyle;rounded=0;orthogonalLoop=1;jettySize=auto;html=1;endArrow=none;endFill=0;" parent="DdUuCqRwAkqUP61v0UxE-16" source="j-maeg7QOYu4QM1gPDef-224" edge="1">
          <mxGeometry relative="1" as="geometry">
            <mxPoint x="720" y="190" as="targetPoint" />
            <Array as="points">
              <mxPoint x="608" y="190" />
              <mxPoint x="680" y="190" />
            </Array>
          </mxGeometry>
        </mxCell>
        <mxCell id="j-maeg7QOYu4QM1gPDef-224" value="ส่ง Error code 500" style="whiteSpace=wrap;html=1;rounded=1;" parent="DdUuCqRwAkqUP61v0UxE-16" vertex="1">
          <mxGeometry x="545" y="130" width="125" height="40" as="geometry" />
        </mxCell>
        <mxCell id="j-maeg7QOYu4QM1gPDef-225" value="" style="edgeStyle=orthogonalEdgeStyle;rounded=0;orthogonalLoop=1;jettySize=auto;html=1;entryX=0.5;entryY=0;entryDx=0;entryDy=0;" parent="DdUuCqRwAkqUP61v0UxE-16" source="j-maeg7QOYu4QM1gPDef-222" target="j-maeg7QOYu4QM1gPDef-224" edge="1">
          <mxGeometry relative="1" as="geometry">
            <Array as="points">
              <mxPoint x="720" y="100" />
              <mxPoint x="608" y="100" />
              <mxPoint x="608" y="110" />
              <mxPoint x="608" y="110" />
            </Array>
          </mxGeometry>
        </mxCell>
        <mxCell id="j-maeg7QOYu4QM1gPDef-226" value="ใช่" style="text;html=1;align=center;verticalAlign=middle;resizable=0;points=[];autosize=1;strokeColor=none;fillColor=none;" parent="DdUuCqRwAkqUP61v0UxE-16" vertex="1">
          <mxGeometry x="737.5" y="70" width="40" height="30" as="geometry" />
        </mxCell>
        <mxCell id="j-maeg7QOYu4QM1gPDef-227" value="ไม่ใช่" style="text;html=1;align=center;verticalAlign=middle;resizable=0;points=[];autosize=1;strokeColor=none;fillColor=none;" parent="DdUuCqRwAkqUP61v0UxE-16" vertex="1">
          <mxGeometry x="650" y="70" width="50" height="30" as="geometry" />
        </mxCell>
        <mxCell id="j-maeg7QOYu4QM1gPDef-228" style="edgeStyle=orthogonalEdgeStyle;rounded=0;orthogonalLoop=1;jettySize=auto;html=1;endArrow=none;endFill=0;" parent="DdUuCqRwAkqUP61v0UxE-16" source="j-maeg7QOYu4QM1gPDef-229" edge="1">
          <mxGeometry relative="1" as="geometry">
            <mxPoint x="720" y="250" as="targetPoint" />
            <Array as="points">
              <mxPoint x="780" y="190" />
              <mxPoint x="720" y="190" />
              <mxPoint x="720" y="230" />
            </Array>
          </mxGeometry>
        </mxCell>
        <mxCell id="j-maeg7QOYu4QM1gPDef-229" value="ส่ง Error Code 1 &lt;br&gt;ไม่สารถยิง OTP ได้" style="whiteSpace=wrap;html=1;rounded=1;" parent="DdUuCqRwAkqUP61v0UxE-16" vertex="1">
          <mxGeometry x="676" y="130" width="120" height="40" as="geometry" />
        </mxCell>
        <mxCell id="j-maeg7QOYu4QM1gPDef-221" style="edgeStyle=orthogonalEdgeStyle;rounded=0;orthogonalLoop=1;jettySize=auto;html=1;endArrow=classic;endFill=1;entryX=0.833;entryY=0;entryDx=0;entryDy=0;entryPerimeter=0;exitX=1;exitY=0.5;exitDx=0;exitDy=0;" parent="DdUuCqRwAkqUP61v0UxE-16" source="j-maeg7QOYu4QM1gPDef-222" target="j-maeg7QOYu4QM1gPDef-229" edge="1">
          <mxGeometry relative="1" as="geometry">
            <mxPoint x="780" y="120.00000000000006" as="targetPoint" />
          </mxGeometry>
        </mxCell>
        <mxCell id="j-maeg7QOYu4QM1gPDef-230" value="ตรวจสอบใน Table Request&lt;br&gt;ด้วยข้อมูลผู้ถือหุ้นที่ต้องติดตามสถานะ เพื่อรับ OTP โดยเช็คจากเงื่อนไขว่า&lt;br&gt;ต้องตรงกันทั้ง 3 ข้อมูล&lt;br&gt;1.AccountID 2.Email 3.Tel" style="whiteSpace=wrap;html=1;rounded=1;" parent="DdUuCqRwAkqUP61v0UxE-16" vertex="1">
          <mxGeometry x="20" y="320" width="200" height="100" as="geometry" />
        </mxCell>
        <mxCell id="j-maeg7QOYu4QM1gPDef-231" value="ทำการ Generate verifyToken ใหม่" style="rounded=1;whiteSpace=wrap;html=1;" parent="DdUuCqRwAkqUP61v0UxE-16" vertex="1">
          <mxGeometry x="224" y="215" width="120" height="60" as="geometry" />
        </mxCell>
        <mxCell id="j-maeg7QOYu4QM1gPDef-213" value="" style="edgeStyle=orthogonalEdgeStyle;rounded=0;orthogonalLoop=1;jettySize=auto;html=1;entryX=0.5;entryY=0;entryDx=0;entryDy=0;" parent="DdUuCqRwAkqUP61v0UxE-16" source="j-maeg7QOYu4QM1gPDef-214" target="j-maeg7QOYu4QM1gPDef-231" edge="1">
          <mxGeometry relative="1" as="geometry">
            <mxPoint x="565.0000000000005" y="210" as="targetPoint" />
            <Array as="points">
              <mxPoint x="430" y="200" />
              <mxPoint x="284" y="200" />
            </Array>
          </mxGeometry>
        </mxCell>
        <mxCell id="j-maeg7QOYu4QM1gPDef-232" value="ตรวจสอบว่าเคยขอมาหรือยัง &lt;br&gt;โดยตรวจสอบใน Table RequestTemp&lt;br&gt;ด้วยข้อมูลผู้ถือหุ้นที่ต้องการยื่นรับ OTP โดยเช็คจากเงื่อนไขว่า&lt;br&gt;ต้องตรงกันทั้ง 3 ข้อมูล&lt;br&gt;1.AccountID 2.Email 3.Tel" style="whiteSpace=wrap;html=1;rounded=1;" parent="DdUuCqRwAkqUP61v0UxE-16" vertex="1">
          <mxGeometry x="460" y="320" width="200" height="100" as="geometry" />
        </mxCell>
        <mxCell id="j-maeg7QOYu4QM1gPDef-234" value="&amp;nbsp;ข้อมูลผู้ถือ&lt;br&gt;หุ้นซ้ำซ้อน&amp;nbsp;" style="rhombus;whiteSpace=wrap;html=1;rounded=1;" parent="DdUuCqRwAkqUP61v0UxE-16" vertex="1">
          <mxGeometry x="520" y="455" width="80" height="80" as="geometry" />
        </mxCell>
        <mxCell id="j-maeg7QOYu4QM1gPDef-235" value="" style="edgeStyle=orthogonalEdgeStyle;rounded=0;orthogonalLoop=1;jettySize=auto;html=1;" parent="DdUuCqRwAkqUP61v0UxE-16" source="j-maeg7QOYu4QM1gPDef-232" target="j-maeg7QOYu4QM1gPDef-234" edge="1">
          <mxGeometry relative="1" as="geometry" />
        </mxCell>
        <mxCell id="j-maeg7QOYu4QM1gPDef-236" value="เพิ่มข้อมูลลงใน Table RequestTemp โดยใช้&lt;br&gt;1. ข้อมูลผู้ถือหุ้น &lt;br&gt;2.ข้อมูล OTP email&lt;br&gt;3.ข้อมูล verifyToken&lt;br&gt;4.วันที่เวลา&lt;br&gt;5.วันที่เวลาในการขอใหม่อีกครั้ง" style="whiteSpace=wrap;html=1;rounded=1;" parent="DdUuCqRwAkqUP61v0UxE-16" vertex="1">
          <mxGeometry x="340" y="435" width="130" height="120" as="geometry" />
        </mxCell>
        <mxCell id="j-maeg7QOYu4QM1gPDef-237" style="edgeStyle=orthogonalEdgeStyle;rounded=0;orthogonalLoop=1;jettySize=auto;html=1;" parent="DdUuCqRwAkqUP61v0UxE-16" source="j-maeg7QOYu4QM1gPDef-234" target="j-maeg7QOYu4QM1gPDef-236" edge="1">
          <mxGeometry relative="1" as="geometry">
            <mxPoint x="475" y="495" as="targetPoint" />
          </mxGeometry>
        </mxCell>
        <mxCell id="j-maeg7QOYu4QM1gPDef-238" value="ปรับปรุงข้อมูลลงใน Table RequestTemp โดยใช้ข้อมูลที่ซ้ำซ้อนมาปรับปรุง&lt;br&gt;1. ข้อมูล otp email&lt;br&gt;2. วันที่เวลา&lt;br&gt;3. verifyToken&lt;br&gt;4.วันที่เวลาในการขอใหม่อีกครั้ง" style="whiteSpace=wrap;html=1;rounded=1;" parent="DdUuCqRwAkqUP61v0UxE-16" vertex="1">
          <mxGeometry x="632.5" y="435" width="145" height="115" as="geometry" />
        </mxCell>
        <mxCell id="j-maeg7QOYu4QM1gPDef-239" style="edgeStyle=orthogonalEdgeStyle;rounded=0;orthogonalLoop=1;jettySize=auto;html=1;entryX=0.004;entryY=0.52;entryDx=0;entryDy=0;entryPerimeter=0;" parent="DdUuCqRwAkqUP61v0UxE-16" source="j-maeg7QOYu4QM1gPDef-234" target="j-maeg7QOYu4QM1gPDef-238" edge="1">
          <mxGeometry relative="1" as="geometry">
            <mxPoint x="655" y="495" as="targetPoint" />
          </mxGeometry>
        </mxCell>
        <mxCell id="j-maeg7QOYu4QM1gPDef-240" value="ไม่ใช่" style="text;html=1;align=center;verticalAlign=middle;resizable=0;points=[];autosize=1;strokeColor=none;fillColor=none;" parent="DdUuCqRwAkqUP61v0UxE-16" vertex="1">
          <mxGeometry x="470" y="455" width="50" height="30" as="geometry" />
        </mxCell>
        <mxCell id="j-maeg7QOYu4QM1gPDef-241" value="ใช่" style="text;html=1;align=center;verticalAlign=middle;resizable=0;points=[];autosize=1;strokeColor=none;fillColor=none;" parent="DdUuCqRwAkqUP61v0UxE-16" vertex="1">
          <mxGeometry x="585" y="440" width="40" height="30" as="geometry" />
        </mxCell>
        <mxCell id="j-maeg7QOYu4QM1gPDef-242" value="เพิ่มข้อมูลลงใน activityLog" style="whiteSpace=wrap;html=1;rounded=1;" parent="DdUuCqRwAkqUP61v0UxE-16" vertex="1">
          <mxGeometry x="500" y="595" width="120" height="60" as="geometry" />
        </mxCell>
        <mxCell id="j-maeg7QOYu4QM1gPDef-243" style="edgeStyle=orthogonalEdgeStyle;rounded=0;orthogonalLoop=1;jettySize=auto;html=1;entryX=0;entryY=0.5;entryDx=0;entryDy=0;" parent="DdUuCqRwAkqUP61v0UxE-16" source="j-maeg7QOYu4QM1gPDef-236" target="j-maeg7QOYu4QM1gPDef-242" edge="1">
          <mxGeometry relative="1" as="geometry">
            <Array as="points">
              <mxPoint x="405" y="625" />
            </Array>
          </mxGeometry>
        </mxCell>
        <mxCell id="j-maeg7QOYu4QM1gPDef-244" style="edgeStyle=orthogonalEdgeStyle;rounded=0;orthogonalLoop=1;jettySize=auto;html=1;entryX=1;entryY=0.5;entryDx=0;entryDy=0;exitX=0.618;exitY=0.998;exitDx=0;exitDy=0;exitPerimeter=0;" parent="DdUuCqRwAkqUP61v0UxE-16" source="j-maeg7QOYu4QM1gPDef-238" target="j-maeg7QOYu4QM1gPDef-242" edge="1">
          <mxGeometry relative="1" as="geometry">
            <Array as="points">
              <mxPoint x="715" y="550" />
              <mxPoint x="715" y="625" />
            </Array>
          </mxGeometry>
        </mxCell>
        <mxCell id="j-maeg7QOYu4QM1gPDef-245" style="edgeStyle=orthogonalEdgeStyle;rounded=0;orthogonalLoop=1;jettySize=auto;html=1;" parent="DdUuCqRwAkqUP61v0UxE-16" target="j-maeg7QOYu4QM1gPDef-248" edge="1">
          <mxGeometry relative="1" as="geometry">
            <mxPoint x="720" y="240" as="sourcePoint" />
            <Array as="points">
              <mxPoint x="720" y="380" />
              <mxPoint x="800" y="380" />
              <mxPoint x="800" y="900" />
              <mxPoint x="660" y="900" />
              <mxPoint x="660" y="1023" />
            </Array>
          </mxGeometry>
        </mxCell>
        <mxCell id="j-maeg7QOYu4QM1gPDef-246" value="ส่งข้อมูลกลับ&lt;br&gt;verifyToken&amp;nbsp;&lt;br&gt;otpToken&lt;br&gt;refCode&lt;br&gt;otp_ResendSmsExpired" style="whiteSpace=wrap;html=1;rounded=1;" parent="DdUuCqRwAkqUP61v0UxE-16" vertex="1">
          <mxGeometry x="505" y="895" width="140" height="80" as="geometry" />
        </mxCell>
        <mxCell id="j-maeg7QOYu4QM1gPDef-248" value="" style="ellipse;whiteSpace=wrap;html=1;aspect=fixed;" parent="DdUuCqRwAkqUP61v0UxE-16" vertex="1">
          <mxGeometry x="555" y="1002.5" width="40" height="40" as="geometry" />
        </mxCell>
        <mxCell id="j-maeg7QOYu4QM1gPDef-249" value="" style="edgeStyle=orthogonalEdgeStyle;rounded=0;orthogonalLoop=1;jettySize=auto;html=1;" parent="DdUuCqRwAkqUP61v0UxE-16" source="j-maeg7QOYu4QM1gPDef-246" target="j-maeg7QOYu4QM1gPDef-248" edge="1">
          <mxGeometry relative="1" as="geometry" />
        </mxCell>
        <mxCell id="j-maeg7QOYu4QM1gPDef-251" value="บันทึกข้อมูลลง database" style="whiteSpace=wrap;html=1;rounded=1;" parent="DdUuCqRwAkqUP61v0UxE-16" vertex="1">
          <mxGeometry x="500" y="695" width="120" height="60" as="geometry" />
        </mxCell>
        <mxCell id="j-maeg7QOYu4QM1gPDef-252" value="" style="edgeStyle=orthogonalEdgeStyle;rounded=0;orthogonalLoop=1;jettySize=auto;html=1;endArrow=classic;endFill=1;" parent="DdUuCqRwAkqUP61v0UxE-16" source="j-maeg7QOYu4QM1gPDef-242" target="j-maeg7QOYu4QM1gPDef-251" edge="1">
          <mxGeometry relative="1" as="geometry" />
        </mxCell>
        <mxCell id="j-maeg7QOYu4QM1gPDef-253" style="edgeStyle=orthogonalEdgeStyle;rounded=0;orthogonalLoop=1;jettySize=auto;html=1;entryX=0;entryY=0.5;entryDx=0;entryDy=0;endArrow=classic;endFill=1;" parent="DdUuCqRwAkqUP61v0UxE-16" edge="1">
          <mxGeometry relative="1" as="geometry">
            <Array as="points">
              <mxPoint x="319" y="385" />
              <mxPoint x="319" y="420" />
              <mxPoint x="320" y="420" />
              <mxPoint x="320" y="660" />
              <mxPoint x="450" y="660" />
              <mxPoint x="450" y="1022" />
            </Array>
            <mxPoint x="319.98969072164937" y="385" as="sourcePoint" />
            <mxPoint x="555" y="1022.5" as="targetPoint" />
          </mxGeometry>
        </mxCell>
        <mxCell id="j-maeg7QOYu4QM1gPDef-254" value="ส่ง Error code 2&lt;br&gt;ข้อมูลประเภทไม่ถูกต้อง" style="whiteSpace=wrap;html=1;rounded=1;" parent="DdUuCqRwAkqUP61v0UxE-16" vertex="1">
          <mxGeometry x="235" y="320" width="155" height="65" as="geometry" />
        </mxCell>
        <mxCell id="j-maeg7QOYu4QM1gPDef-206" value="" style="edgeStyle=orthogonalEdgeStyle;rounded=0;orthogonalLoop=1;jettySize=auto;html=1;endArrow=classic;endFill=1;entryX=0.5;entryY=0;entryDx=0;entryDy=0;" parent="DdUuCqRwAkqUP61v0UxE-16" source="j-maeg7QOYu4QM1gPDef-207" target="j-maeg7QOYu4QM1gPDef-254" edge="1">
          <mxGeometry relative="1" as="geometry">
            <Array as="points">
              <mxPoint x="189" y="245" />
              <mxPoint x="189" y="300" />
              <mxPoint x="313" y="300" />
            </Array>
          </mxGeometry>
        </mxCell>
        <mxCell id="j-maeg7QOYu4QM1gPDef-255" style="edgeStyle=orthogonalEdgeStyle;rounded=0;orthogonalLoop=1;jettySize=auto;html=1;endArrow=none;endFill=0;exitX=0.5;exitY=1;exitDx=0;exitDy=0;" parent="DdUuCqRwAkqUP61v0UxE-16" source="j-maeg7QOYu4QM1gPDef-260" edge="1">
          <mxGeometry relative="1" as="geometry">
            <mxPoint x="330" y="659.9999999999998" as="targetPoint" />
            <Array as="points">
              <mxPoint x="250" y="660" />
            </Array>
          </mxGeometry>
        </mxCell>
        <mxCell id="j-maeg7QOYu4QM1gPDef-256" value="" style="edgeStyle=orthogonalEdgeStyle;rounded=0;orthogonalLoop=1;jettySize=auto;html=1;entryX=0.5;entryY=0;entryDx=0;entryDy=0;" parent="DdUuCqRwAkqUP61v0UxE-16" target="j-maeg7QOYu4QM1gPDef-257" edge="1">
          <mxGeometry relative="1" as="geometry">
            <mxPoint x="119.52380952380963" y="445.0224089635856" as="targetPoint" />
            <mxPoint x="120.00000000000045" y="419.9999999999998" as="sourcePoint" />
          </mxGeometry>
        </mxCell>
        <mxCell id="j-maeg7QOYu4QM1gPDef-257" value="มีข้อมูล" style="rhombus;whiteSpace=wrap;html=1;rounded=1;" parent="DdUuCqRwAkqUP61v0UxE-16" vertex="1">
          <mxGeometry x="92.5" y="460" width="100" height="80" as="geometry" />
        </mxCell>
        <mxCell id="j-maeg7QOYu4QM1gPDef-258" value="ใช่" style="text;html=1;align=center;verticalAlign=middle;resizable=0;points=[];autosize=1;strokeColor=none;fillColor=none;" parent="DdUuCqRwAkqUP61v0UxE-16" vertex="1">
          <mxGeometry x="60" y="455" width="40" height="30" as="geometry" />
        </mxCell>
        <mxCell id="j-maeg7QOYu4QM1gPDef-259" value="ไม่ใช่" style="text;html=1;align=center;verticalAlign=middle;resizable=0;points=[];autosize=1;strokeColor=none;fillColor=none;" parent="DdUuCqRwAkqUP61v0UxE-16" vertex="1">
          <mxGeometry x="180" y="455" width="50" height="30" as="geometry" />
        </mxCell>
        <mxCell id="j-maeg7QOYu4QM1gPDef-260" value="ส่ง Error Code 3&lt;br&gt;ไม่พบเอกสารคำร้องที่ตรงกับข้อมูลผู้ถือหุ้นในการติดตามเอกสารคำร้อง" style="whiteSpace=wrap;html=1;rounded=1;" parent="DdUuCqRwAkqUP61v0UxE-16" vertex="1">
          <mxGeometry x="170" y="545" width="140" height="65" as="geometry" />
        </mxCell>
        <mxCell id="j-maeg7QOYu4QM1gPDef-261" value="" style="edgeStyle=orthogonalEdgeStyle;rounded=0;orthogonalLoop=1;jettySize=auto;html=1;entryX=0.5;entryY=0;entryDx=0;entryDy=0;" parent="DdUuCqRwAkqUP61v0UxE-16" source="j-maeg7QOYu4QM1gPDef-257" target="j-maeg7QOYu4QM1gPDef-260" edge="1">
          <mxGeometry relative="1" as="geometry">
            <Array as="points">
              <mxPoint x="240" y="490" />
            </Array>
          </mxGeometry>
        </mxCell>
        <mxCell id="j-maeg7QOYu4QM1gPDef-265" value="สำเร็จ" style="rhombus;whiteSpace=wrap;html=1;rounded=1;" parent="DdUuCqRwAkqUP61v0UxE-16" vertex="1">
          <mxGeometry x="40" y="710" width="80" height="80" as="geometry" />
        </mxCell>
        <mxCell id="j-maeg7QOYu4QM1gPDef-267" style="edgeStyle=orthogonalEdgeStyle;rounded=0;orthogonalLoop=1;jettySize=auto;html=1;endArrow=none;endFill=0;" parent="DdUuCqRwAkqUP61v0UxE-16" source="j-maeg7QOYu4QM1gPDef-268" edge="1">
          <mxGeometry relative="1" as="geometry">
            <mxPoint x="450" y="727.4999999999998" as="targetPoint" />
            <Array as="points">
              <mxPoint x="403" y="718" />
              <mxPoint x="450" y="718" />
            </Array>
          </mxGeometry>
        </mxCell>
        <mxCell id="j-maeg7QOYu4QM1gPDef-268" value="ส่ง Error Code 1 &lt;br&gt;ไม่สารถยิง OTP ได้" style="whiteSpace=wrap;html=1;rounded=1;" parent="DdUuCqRwAkqUP61v0UxE-16" vertex="1">
          <mxGeometry x="245" y="687.5" width="120" height="60" as="geometry" />
        </mxCell>
        <mxCell id="j-maeg7QOYu4QM1gPDef-264" style="edgeStyle=orthogonalEdgeStyle;rounded=0;orthogonalLoop=1;jettySize=auto;html=1;entryX=0;entryY=0.5;entryDx=0;entryDy=0;endArrow=classic;endFill=1;" parent="DdUuCqRwAkqUP61v0UxE-16" source="j-maeg7QOYu4QM1gPDef-265" target="j-maeg7QOYu4QM1gPDef-268" edge="1">
          <mxGeometry relative="1" as="geometry" />
        </mxCell>
        <mxCell id="j-maeg7QOYu4QM1gPDef-269" value="ไม่ใช่" style="text;html=1;align=center;verticalAlign=middle;resizable=0;points=[];autosize=1;strokeColor=none;fillColor=none;" parent="DdUuCqRwAkqUP61v0UxE-16" vertex="1">
          <mxGeometry x="130" y="710" width="50" height="30" as="geometry" />
        </mxCell>
        <mxCell id="j-maeg7QOYu4QM1gPDef-270" value="ใช่" style="text;html=1;align=center;verticalAlign=middle;resizable=0;points=[];autosize=1;strokeColor=none;fillColor=none;" parent="DdUuCqRwAkqUP61v0UxE-16" vertex="1">
          <mxGeometry x="7.5" y="717.5" width="40" height="30" as="geometry" />
        </mxCell>
        <mxCell id="j-maeg7QOYu4QM1gPDef-272" value="ทำการ Generate verifyToken ใหม่" style="whiteSpace=wrap;html=1;rounded=1;" parent="DdUuCqRwAkqUP61v0UxE-16" vertex="1">
          <mxGeometry y="810" width="120" height="60" as="geometry" />
        </mxCell>
        <mxCell id="j-maeg7QOYu4QM1gPDef-273" value="" style="edgeStyle=orthogonalEdgeStyle;rounded=0;orthogonalLoop=1;jettySize=auto;html=1;exitX=0;exitY=0.5;exitDx=0;exitDy=0;" parent="DdUuCqRwAkqUP61v0UxE-16" source="j-maeg7QOYu4QM1gPDef-265" target="j-maeg7QOYu4QM1gPDef-272" edge="1">
          <mxGeometry relative="1" as="geometry">
            <Array as="points">
              <mxPoint x="29" y="750" />
            </Array>
          </mxGeometry>
        </mxCell>
        <mxCell id="j-maeg7QOYu4QM1gPDef-274" value="บันทึกข้อมูลลง database" style="whiteSpace=wrap;html=1;rounded=1;" parent="DdUuCqRwAkqUP61v0UxE-16" vertex="1">
          <mxGeometry x="60" y="1129" width="120" height="60" as="geometry" />
        </mxCell>
        <mxCell id="j-maeg7QOYu4QM1gPDef-276" value="ปรับปรุงข้อมูลลงใน Table Request โดยใช้ข้อมูลที่ตรงกับเงื่อนไขมาปรับปรุง&lt;br&gt;1. ข้อมูล OTP email&lt;br&gt;2. วันที่เวลา&lt;br&gt;3.verifyToken&lt;br&gt;4.วันที่เวลาในการขอใหม่อีกครั้ง" style="whiteSpace=wrap;html=1;rounded=1;" parent="DdUuCqRwAkqUP61v0UxE-16" vertex="1">
          <mxGeometry x="40" y="900" width="162.5" height="115" as="geometry" />
        </mxCell>
        <mxCell id="j-maeg7QOYu4QM1gPDef-271" value="" style="edgeStyle=orthogonalEdgeStyle;rounded=0;orthogonalLoop=1;jettySize=auto;html=1;endArrow=classic;endFill=1;exitX=0.5;exitY=1;exitDx=0;exitDy=0;" parent="DdUuCqRwAkqUP61v0UxE-16" source="DdUuCqRwAkqUP61v0UxE-38" target="j-maeg7QOYu4QM1gPDef-276" edge="1">
          <mxGeometry relative="1" as="geometry">
            <Array as="points">
              <mxPoint x="360" y="880" />
              <mxPoint x="121" y="880" />
            </Array>
          </mxGeometry>
        </mxCell>
        <mxCell id="j-maeg7QOYu4QM1gPDef-277" style="edgeStyle=orthogonalEdgeStyle;rounded=0;orthogonalLoop=1;jettySize=auto;html=1;endArrow=none;endFill=0;" parent="DdUuCqRwAkqUP61v0UxE-16" edge="1">
          <mxGeometry relative="1" as="geometry">
            <mxPoint x="450" y="901.9999999999998" as="targetPoint" />
            <mxPoint x="390" y="1071" as="sourcePoint" />
            <Array as="points">
              <mxPoint x="390" y="1022" />
              <mxPoint x="450" y="1022" />
            </Array>
          </mxGeometry>
        </mxCell>
        <mxCell id="j-maeg7QOYu4QM1gPDef-278" value="ส่งข้อมูลกลับ&lt;br&gt;verifyToken&amp;nbsp;&lt;br&gt;otpToken&lt;br&gt;refCode&lt;br&gt;otp_ResendSmsExpired" style="whiteSpace=wrap;html=1;rounded=1;" parent="DdUuCqRwAkqUP61v0UxE-16" vertex="1">
          <mxGeometry x="325" y="1069" width="135" height="81" as="geometry" />
        </mxCell>
        <mxCell id="j-maeg7QOYu4QM1gPDef-279" value="" style="edgeStyle=orthogonalEdgeStyle;rounded=0;orthogonalLoop=1;jettySize=auto;html=1;endArrow=classic;endFill=1;" parent="DdUuCqRwAkqUP61v0UxE-16" source="j-maeg7QOYu4QM1gPDef-280" target="j-maeg7QOYu4QM1gPDef-278" edge="1">
          <mxGeometry relative="1" as="geometry">
            <Array as="points">
              <mxPoint x="120" y="1300" />
              <mxPoint x="395" y="1300" />
            </Array>
          </mxGeometry>
        </mxCell>
        <mxCell id="j-maeg7QOYu4QM1gPDef-280" value="สำเร็จ" style="rhombus;whiteSpace=wrap;html=1;rounded=1;" parent="DdUuCqRwAkqUP61v0UxE-16" vertex="1">
          <mxGeometry x="80" y="1210" width="80" height="80" as="geometry" />
        </mxCell>
        <mxCell id="j-maeg7QOYu4QM1gPDef-281" value="ใช่" style="text;html=1;align=center;verticalAlign=middle;resizable=0;points=[];autosize=1;strokeColor=none;fillColor=none;" parent="DdUuCqRwAkqUP61v0UxE-16" vertex="1">
          <mxGeometry x="70" y="1280" width="40" height="30" as="geometry" />
        </mxCell>
        <mxCell id="j-maeg7QOYu4QM1gPDef-282" value="ไม่ใช่" style="text;html=1;align=center;verticalAlign=middle;resizable=0;points=[];autosize=1;strokeColor=none;fillColor=none;" parent="DdUuCqRwAkqUP61v0UxE-16" vertex="1">
          <mxGeometry x="150" y="1215" width="50" height="30" as="geometry" />
        </mxCell>
        <mxCell id="j-maeg7QOYu4QM1gPDef-283" value="" style="edgeStyle=orthogonalEdgeStyle;rounded=0;orthogonalLoop=1;jettySize=auto;html=1;" parent="DdUuCqRwAkqUP61v0UxE-16" source="j-maeg7QOYu4QM1gPDef-274" target="j-maeg7QOYu4QM1gPDef-280" edge="1">
          <mxGeometry relative="1" as="geometry" />
        </mxCell>
        <mxCell id="j-maeg7QOYu4QM1gPDef-284" style="edgeStyle=orthogonalEdgeStyle;rounded=0;orthogonalLoop=1;jettySize=auto;html=1;endArrow=none;endFill=0;" parent="DdUuCqRwAkqUP61v0UxE-16" source="j-maeg7QOYu4QM1gPDef-285" edge="1">
          <mxGeometry relative="1" as="geometry">
            <mxPoint x="450" y="899.9999999999998" as="targetPoint" />
          </mxGeometry>
        </mxCell>
        <mxCell id="j-maeg7QOYu4QM1gPDef-285" value="ส่ง Error code 500" style="whiteSpace=wrap;html=1;rounded=1;" parent="DdUuCqRwAkqUP61v0UxE-16" vertex="1">
          <mxGeometry x="252.5" y="915" width="120" height="60" as="geometry" />
        </mxCell>
        <mxCell id="j-maeg7QOYu4QM1gPDef-286" style="edgeStyle=orthogonalEdgeStyle;rounded=0;orthogonalLoop=1;jettySize=auto;html=1;entryX=0.5;entryY=1;entryDx=0;entryDy=0;" parent="DdUuCqRwAkqUP61v0UxE-16" source="j-maeg7QOYu4QM1gPDef-280" target="j-maeg7QOYu4QM1gPDef-285" edge="1">
          <mxGeometry relative="1" as="geometry">
            <mxPoint x="560" y="612.5" as="targetPoint" />
            <Array as="points">
              <mxPoint x="230" y="1250" />
              <mxPoint x="230" y="1050" />
              <mxPoint x="313" y="1050" />
              <mxPoint x="313" y="975" />
            </Array>
          </mxGeometry>
        </mxCell>
        <mxCell id="j-maeg7QOYu4QM1gPDef-287" value="" style="edgeStyle=orthogonalEdgeStyle;rounded=0;orthogonalLoop=1;jettySize=auto;html=1;endArrow=classic;endFill=1;" parent="DdUuCqRwAkqUP61v0UxE-16" source="j-maeg7QOYu4QM1gPDef-288" target="j-maeg7QOYu4QM1gPDef-274" edge="1">
          <mxGeometry relative="1" as="geometry" />
        </mxCell>
        <mxCell id="j-maeg7QOYu4QM1gPDef-288" value="เพิ่มข้อมูลลงใน activityLog" style="whiteSpace=wrap;html=1;rounded=1;" parent="DdUuCqRwAkqUP61v0UxE-16" vertex="1">
          <mxGeometry x="60" y="1042.5" width="120" height="60" as="geometry" />
        </mxCell>
        <mxCell id="j-maeg7QOYu4QM1gPDef-275" value="" style="edgeStyle=orthogonalEdgeStyle;rounded=0;orthogonalLoop=1;jettySize=auto;html=1;endArrow=classic;endFill=1;" parent="DdUuCqRwAkqUP61v0UxE-16" source="j-maeg7QOYu4QM1gPDef-276" target="j-maeg7QOYu4QM1gPDef-288" edge="1">
          <mxGeometry relative="1" as="geometry" />
        </mxCell>
        <mxCell id="j-maeg7QOYu4QM1gPDef-289" value="สิ้นสุด" style="ellipse;whiteSpace=wrap;html=1;" parent="DdUuCqRwAkqUP61v0UxE-16" vertex="1">
          <mxGeometry x="535" y="1069" width="80" height="40" as="geometry" />
        </mxCell>
        <mxCell id="j-maeg7QOYu4QM1gPDef-291" value="" style="edgeStyle=orthogonalEdgeStyle;rounded=0;orthogonalLoop=1;jettySize=auto;html=1;endArrow=classic;endFill=1;" parent="DdUuCqRwAkqUP61v0UxE-16" source="j-maeg7QOYu4QM1gPDef-292" target="j-maeg7QOYu4QM1gPDef-246" edge="1">
          <mxGeometry relative="1" as="geometry" />
        </mxCell>
        <mxCell id="j-maeg7QOYu4QM1gPDef-292" value="สำเร็จ" style="rhombus;whiteSpace=wrap;html=1;rounded=1;" parent="DdUuCqRwAkqUP61v0UxE-16" vertex="1">
          <mxGeometry x="520" y="770" width="80" height="80" as="geometry" />
        </mxCell>
        <mxCell id="j-maeg7QOYu4QM1gPDef-247" value="" style="edgeStyle=orthogonalEdgeStyle;rounded=0;orthogonalLoop=1;jettySize=auto;html=1;endArrow=classic;endFill=1;" parent="DdUuCqRwAkqUP61v0UxE-16" source="j-maeg7QOYu4QM1gPDef-248" target="j-maeg7QOYu4QM1gPDef-289" edge="1">
          <mxGeometry relative="1" as="geometry" />
        </mxCell>
        <mxCell id="j-maeg7QOYu4QM1gPDef-293" style="edgeStyle=orthogonalEdgeStyle;rounded=0;orthogonalLoop=1;jettySize=auto;html=1;endArrow=none;endFill=0;" parent="DdUuCqRwAkqUP61v0UxE-16" source="j-maeg7QOYu4QM1gPDef-294" edge="1">
          <mxGeometry relative="1" as="geometry">
            <mxPoint x="800" y="809.9999999999998" as="targetPoint" />
          </mxGeometry>
        </mxCell>
        <mxCell id="j-maeg7QOYu4QM1gPDef-294" value="ส่ง Error code 500" style="whiteSpace=wrap;html=1;rounded=1;" parent="DdUuCqRwAkqUP61v0UxE-16" vertex="1">
          <mxGeometry x="640" y="795" width="120" height="30" as="geometry" />
        </mxCell>
        <mxCell id="j-maeg7QOYu4QM1gPDef-295" value="ไม่ใช่" style="text;html=1;align=center;verticalAlign=middle;resizable=0;points=[];autosize=1;strokeColor=none;fillColor=none;" parent="DdUuCqRwAkqUP61v0UxE-16" vertex="1">
          <mxGeometry x="585" y="775" width="50" height="30" as="geometry" />
        </mxCell>
        <mxCell id="j-maeg7QOYu4QM1gPDef-296" value="ใช่" style="text;html=1;align=center;verticalAlign=middle;resizable=0;points=[];autosize=1;strokeColor=none;fillColor=none;" parent="DdUuCqRwAkqUP61v0UxE-16" vertex="1">
          <mxGeometry x="510" y="840" width="40" height="30" as="geometry" />
        </mxCell>
        <mxCell id="j-maeg7QOYu4QM1gPDef-250" value="" style="edgeStyle=orthogonalEdgeStyle;rounded=0;orthogonalLoop=1;jettySize=auto;html=1;endArrow=none;endFill=0;" parent="DdUuCqRwAkqUP61v0UxE-16" source="j-maeg7QOYu4QM1gPDef-251" target="j-maeg7QOYu4QM1gPDef-292" edge="1">
          <mxGeometry relative="1" as="geometry" />
        </mxCell>
        <mxCell id="j-maeg7QOYu4QM1gPDef-290" value="" style="edgeStyle=orthogonalEdgeStyle;rounded=0;orthogonalLoop=1;jettySize=auto;html=1;endArrow=none;endFill=0;" parent="DdUuCqRwAkqUP61v0UxE-16" source="j-maeg7QOYu4QM1gPDef-292" target="j-maeg7QOYu4QM1gPDef-294" edge="1">
          <mxGeometry relative="1" as="geometry" />
        </mxCell>
        <mxCell id="j-maeg7QOYu4QM1gPDef-300" style="edgeStyle=orthogonalEdgeStyle;rounded=0;orthogonalLoop=1;jettySize=auto;html=1;exitX=1;exitY=0.5;exitDx=0;exitDy=0;" parent="DdUuCqRwAkqUP61v0UxE-16" source="j-maeg7QOYu4QM1gPDef-298" target="j-maeg7QOYu4QM1gPDef-214" edge="1">
          <mxGeometry relative="1" as="geometry" />
        </mxCell>
        <mxCell id="j-maeg7QOYu4QM1gPDef-298" value="ส่ง OTP ไปยังอีเมล์ที่&lt;br&gt;ขอรับ OTP" style="rounded=1;whiteSpace=wrap;html=1;" parent="DdUuCqRwAkqUP61v0UxE-16" vertex="1">
          <mxGeometry x="224" y="110" width="120" height="60" as="geometry" />
        </mxCell>
        <mxCell id="j-maeg7QOYu4QM1gPDef-299" value="" style="edgeStyle=orthogonalEdgeStyle;rounded=0;orthogonalLoop=1;jettySize=auto;html=1;" parent="DdUuCqRwAkqUP61v0UxE-16" source="j-maeg7QOYu4QM1gPDef-211" target="j-maeg7QOYu4QM1gPDef-298" edge="1">
          <mxGeometry relative="1" as="geometry" />
        </mxCell>
        <mxCell id="DdUuCqRwAkqUP61v0UxE-44" value="" style="edgeStyle=orthogonalEdgeStyle;rounded=0;orthogonalLoop=1;jettySize=auto;html=1;endArrow=classic;endFill=1;" edge="1" parent="DdUuCqRwAkqUP61v0UxE-16" source="j-maeg7QOYu4QM1gPDef-301" target="DdUuCqRwAkqUP61v0UxE-42">
          <mxGeometry relative="1" as="geometry" />
        </mxCell>
        <mxCell id="j-maeg7QOYu4QM1gPDef-301" value="ทำการ Generate&amp;nbsp;&lt;br&gt;otp email ใหม่" style="whiteSpace=wrap;html=1;rounded=1;" parent="DdUuCqRwAkqUP61v0UxE-16" vertex="1">
          <mxGeometry x="370" y="215" width="120" height="60" as="geometry" />
        </mxCell>
        <mxCell id="j-maeg7QOYu4QM1gPDef-302" value="" style="edgeStyle=orthogonalEdgeStyle;rounded=0;orthogonalLoop=1;jettySize=auto;html=1;" parent="DdUuCqRwAkqUP61v0UxE-16" source="j-maeg7QOYu4QM1gPDef-231" target="j-maeg7QOYu4QM1gPDef-301" edge="1">
          <mxGeometry relative="1" as="geometry" />
        </mxCell>
        <mxCell id="DdUuCqRwAkqUP61v0UxE-41" value="" style="edgeStyle=orthogonalEdgeStyle;rounded=0;orthogonalLoop=1;jettySize=auto;html=1;endArrow=classic;endFill=1;" edge="1" parent="DdUuCqRwAkqUP61v0UxE-16" source="j-maeg7QOYu4QM1gPDef-303" target="DdUuCqRwAkqUP61v0UxE-38">
          <mxGeometry relative="1" as="geometry" />
        </mxCell>
        <mxCell id="j-maeg7QOYu4QM1gPDef-303" value="ทำการ Generate&amp;nbsp;&lt;br&gt;otp email ใหม่" style="whiteSpace=wrap;html=1;rounded=1;" parent="DdUuCqRwAkqUP61v0UxE-16" vertex="1">
          <mxGeometry x="145" y="810" width="120" height="60" as="geometry" />
        </mxCell>
        <mxCell id="j-maeg7QOYu4QM1gPDef-304" value="" style="edgeStyle=orthogonalEdgeStyle;rounded=0;orthogonalLoop=1;jettySize=auto;html=1;" parent="DdUuCqRwAkqUP61v0UxE-16" source="j-maeg7QOYu4QM1gPDef-272" target="j-maeg7QOYu4QM1gPDef-303" edge="1">
          <mxGeometry relative="1" as="geometry" />
        </mxCell>
        <mxCell id="j-maeg7QOYu4QM1gPDef-305" value="ดึงข้อมูลที่ใช้&lt;br&gt;สำหรับส่งข้อมูล OTP ด้วยอีเมล์จาก App setting" style="whiteSpace=wrap;html=1;rounded=1;" parent="DdUuCqRwAkqUP61v0UxE-16" vertex="1">
          <mxGeometry x="5" y="545" width="150" height="60" as="geometry" />
        </mxCell>
        <mxCell id="j-maeg7QOYu4QM1gPDef-310" value="" style="edgeStyle=orthogonalEdgeStyle;rounded=0;orthogonalLoop=1;jettySize=auto;html=1;" parent="DdUuCqRwAkqUP61v0UxE-16" source="j-maeg7QOYu4QM1gPDef-306" edge="1">
          <mxGeometry relative="1" as="geometry">
            <mxPoint x="80" y="710" as="targetPoint" />
          </mxGeometry>
        </mxCell>
        <mxCell id="j-maeg7QOYu4QM1gPDef-306" value="ส่ง OTP ไปยังอีเมล์ที่&lt;br&gt;ขอรับ OTP" style="rounded=1;whiteSpace=wrap;html=1;" parent="DdUuCqRwAkqUP61v0UxE-16" vertex="1">
          <mxGeometry x="20" y="627.5" width="120" height="60" as="geometry" />
        </mxCell>
        <mxCell id="j-maeg7QOYu4QM1gPDef-307" value="" style="edgeStyle=orthogonalEdgeStyle;rounded=0;orthogonalLoop=1;jettySize=auto;html=1;" parent="DdUuCqRwAkqUP61v0UxE-16" source="j-maeg7QOYu4QM1gPDef-305" target="j-maeg7QOYu4QM1gPDef-306" edge="1">
          <mxGeometry relative="1" as="geometry" />
        </mxCell>
        <mxCell id="j-maeg7QOYu4QM1gPDef-308" style="edgeStyle=orthogonalEdgeStyle;rounded=0;orthogonalLoop=1;jettySize=auto;html=1;entryX=0.462;entryY=-0.039;entryDx=0;entryDy=0;entryPerimeter=0;exitX=0;exitY=0.5;exitDx=0;exitDy=0;" parent="DdUuCqRwAkqUP61v0UxE-16" source="j-maeg7QOYu4QM1gPDef-257" target="j-maeg7QOYu4QM1gPDef-305" edge="1">
          <mxGeometry relative="1" as="geometry">
            <mxPoint x="69" y="540" as="targetPoint" />
            <Array as="points">
              <mxPoint x="74" y="500" />
            </Array>
          </mxGeometry>
        </mxCell>
        <mxCell id="DdUuCqRwAkqUP61v0UxE-38" value="ทำการ generate otp_resendEmailExpired" style="whiteSpace=wrap;html=1;rounded=1;" vertex="1" parent="DdUuCqRwAkqUP61v0UxE-16">
          <mxGeometry x="289" y="810" width="141" height="60" as="geometry" />
        </mxCell>
        <mxCell id="DdUuCqRwAkqUP61v0UxE-45" value="" style="edgeStyle=orthogonalEdgeStyle;rounded=0;orthogonalLoop=1;jettySize=auto;html=1;endArrow=classic;endFill=1;" edge="1" parent="DdUuCqRwAkqUP61v0UxE-16" source="DdUuCqRwAkqUP61v0UxE-42" target="j-maeg7QOYu4QM1gPDef-232">
          <mxGeometry relative="1" as="geometry" />
        </mxCell>
        <mxCell id="DdUuCqRwAkqUP61v0UxE-42" value="ทำการ generate otp_resendEmailExpired" style="whiteSpace=wrap;html=1;rounded=1;" vertex="1" parent="DdUuCqRwAkqUP61v0UxE-16">
          <mxGeometry x="529" y="215" width="141" height="60" as="geometry" />
        </mxCell>
        <mxCell id="DdUuCqRwAkqUP61v0UxE-17" value="ตรวจสอบว่า verifyToken นี้เคยมีการขอ OTP เเล้วหรือไม่" style="rounded=1;whiteSpace=wrap;html=1;" vertex="1" parent="1">
          <mxGeometry x="980" y="25" width="120" height="50" as="geometry" />
        </mxCell>
        <mxCell id="DdUuCqRwAkqUP61v0UxE-32" style="edgeStyle=orthogonalEdgeStyle;rounded=0;orthogonalLoop=1;jettySize=auto;html=1;" edge="1" parent="1" source="DdUuCqRwAkqUP61v0UxE-19" target="j-maeg7QOYu4QM1gPDef-199">
          <mxGeometry relative="1" as="geometry">
            <Array as="points">
              <mxPoint x="1155" y="100" />
              <mxPoint x="961" y="100" />
            </Array>
          </mxGeometry>
        </mxCell>
        <mxCell id="DdUuCqRwAkqUP61v0UxE-19" value="มีข้อมูล" style="rhombus;whiteSpace=wrap;html=1;rounded=1;" vertex="1" parent="1">
          <mxGeometry x="1125" y="22.5" width="60" height="55" as="geometry" />
        </mxCell>
        <mxCell id="DdUuCqRwAkqUP61v0UxE-20" value="" style="edgeStyle=orthogonalEdgeStyle;rounded=0;orthogonalLoop=1;jettySize=auto;html=1;" edge="1" parent="1" source="DdUuCqRwAkqUP61v0UxE-17" target="DdUuCqRwAkqUP61v0UxE-19">
          <mxGeometry relative="1" as="geometry" />
        </mxCell>
        <mxCell id="DdUuCqRwAkqUP61v0UxE-21" value="ไม่" style="text;html=1;align=center;verticalAlign=middle;resizable=0;points=[];autosize=1;strokeColor=none;fillColor=none;" vertex="1" parent="1">
          <mxGeometry x="1100" y="55" width="40" height="30" as="geometry" />
        </mxCell>
        <mxCell id="DdUuCqRwAkqUP61v0UxE-22" value="ใช่" style="text;html=1;align=center;verticalAlign=middle;resizable=0;points=[];autosize=1;strokeColor=none;fillColor=none;" vertex="1" parent="1">
          <mxGeometry x="1181" y="22.5" width="40" height="30" as="geometry" />
        </mxCell>
        <mxCell id="DdUuCqRwAkqUP61v0UxE-23" value="ตรวจสอบเวลาหมดอายุ&lt;br&gt;การส่งอีกครั้ง" style="whiteSpace=wrap;html=1;rounded=1;" vertex="1" parent="1">
          <mxGeometry x="1235" y="32.5" width="140" height="35" as="geometry" />
        </mxCell>
        <mxCell id="DdUuCqRwAkqUP61v0UxE-24" value="" style="edgeStyle=orthogonalEdgeStyle;rounded=0;orthogonalLoop=1;jettySize=auto;html=1;" edge="1" parent="1" source="DdUuCqRwAkqUP61v0UxE-19" target="DdUuCqRwAkqUP61v0UxE-23">
          <mxGeometry relative="1" as="geometry" />
        </mxCell>
        <mxCell id="DdUuCqRwAkqUP61v0UxE-34" style="edgeStyle=orthogonalEdgeStyle;rounded=0;orthogonalLoop=1;jettySize=auto;html=1;endArrow=none;endFill=0;" edge="1" parent="1" source="DdUuCqRwAkqUP61v0UxE-26">
          <mxGeometry relative="1" as="geometry">
            <mxPoint x="1150" y="100" as="targetPoint" />
            <Array as="points">
              <mxPoint x="1440" y="100" />
            </Array>
          </mxGeometry>
        </mxCell>
        <mxCell id="DdUuCqRwAkqUP61v0UxE-26" value="หมดอายุ" style="rhombus;whiteSpace=wrap;html=1;rounded=1;" vertex="1" parent="1">
          <mxGeometry x="1410" y="10" width="60" height="65" as="geometry" />
        </mxCell>
        <mxCell id="DdUuCqRwAkqUP61v0UxE-27" value="" style="edgeStyle=orthogonalEdgeStyle;rounded=0;orthogonalLoop=1;jettySize=auto;html=1;" edge="1" parent="1" source="DdUuCqRwAkqUP61v0UxE-23" target="DdUuCqRwAkqUP61v0UxE-26">
          <mxGeometry relative="1" as="geometry" />
        </mxCell>
        <mxCell id="DdUuCqRwAkqUP61v0UxE-28" value="ใช่" style="text;html=1;align=center;verticalAlign=middle;resizable=0;points=[];autosize=1;strokeColor=none;fillColor=none;" vertex="1" parent="1">
          <mxGeometry x="1390" y="55" width="40" height="30" as="geometry" />
        </mxCell>
        <mxCell id="DdUuCqRwAkqUP61v0UxE-29" value="ไม่ใช่" style="text;html=1;align=center;verticalAlign=middle;resizable=0;points=[];autosize=1;strokeColor=none;fillColor=none;" vertex="1" parent="1">
          <mxGeometry x="1455" y="10" width="50" height="30" as="geometry" />
        </mxCell>
        <mxCell id="DdUuCqRwAkqUP61v0UxE-37" style="edgeStyle=orthogonalEdgeStyle;rounded=0;orthogonalLoop=1;jettySize=auto;html=1;endArrow=none;endFill=0;" edge="1" parent="1" source="DdUuCqRwAkqUP61v0UxE-30">
          <mxGeometry relative="1" as="geometry">
            <mxPoint x="1640" y="500" as="targetPoint" />
          </mxGeometry>
        </mxCell>
        <mxCell id="DdUuCqRwAkqUP61v0UxE-30" value="ส่ง Error code 4&amp;nbsp;&lt;br&gt;ยังไม่ถึงเวลาในการร้องขอ OTP ใหม่อีกครั้ง" style="whiteSpace=wrap;html=1;rounded=1;" vertex="1" parent="1">
          <mxGeometry x="1490" y="55" width="120" height="70" as="geometry" />
        </mxCell>
        <mxCell id="DdUuCqRwAkqUP61v0UxE-25" value="" style="edgeStyle=orthogonalEdgeStyle;rounded=0;orthogonalLoop=1;jettySize=auto;html=1;endArrow=none;endFill=0;" edge="1" parent="1" source="DdUuCqRwAkqUP61v0UxE-26" target="DdUuCqRwAkqUP61v0UxE-30">
          <mxGeometry relative="1" as="geometry">
            <Array as="points">
              <mxPoint x="1480" y="43" />
              <mxPoint x="1480" y="90" />
            </Array>
          </mxGeometry>
        </mxCell>
      </root>
    </mxGraphModel>
  </diagram>
</mxfile>
